<?xml version="1.0" encoding="UTF-8"?>
<!-- Generated by Pixelmator Pro 3.5.6 -->
<svg width="1080" height="290" viewBox="0 0 1080 290" xmlns="http://www.w3.org/2000/svg">
    <g id="borginspiredark">
        <g id="borg">
            <g id="Group">
                <path id="Path" fill="#223843" stroke="none" d="M 193.298355 147.417145 C 185.24939 141.380432 175.993408 135.746307 165.932236 132.124176 C 178.810349 118.038528 186.859299 99.526031 186.859299 79.403687 C 186.859299 57.269073 177.200455 37.549103 162.712463 23.061127 C 147.822098 8.975433 127.296906 0.121582 105.162308 0.121582 C 82.625366 0.121582 62.502998 8.975433 47.612648 23.061127 C 33.124649 37.549103 23.86817 57.269073 23.86817 79.403687 L 23.86817 285.85907 L 122.870079 285.85907 C 150.236694 285.85907 175.590576 276.602844 193.298355 262.114594 C 211.408463 247.626587 222.677185 227.101898 222.677185 204.564697 C 222.677185 182.430084 211.408463 161.905396 193.298355 147.417145 Z M 71.759483 47.610306 C 80.21077 39.561295 91.881844 34.329544 105.162308 34.329544 C 118.040916 34.329544 129.71199 39.561295 138.565613 47.610306 C 147.016922 56.061783 152.248932 66.927673 152.248932 79.403687 C 152.248932 91.477097 147.016922 102.74559 138.565613 110.79454 C 130.114319 118.843475 118.443253 124.075226 105.162308 124.075226 L 58.478527 124.075226 L 58.478527 79.001083 C 58.478527 66.927673 63.308189 55.659256 71.759483 47.610306 Z M 163.517151 237.967743 C 153.053619 246.419296 138.967972 251.651047 122.870079 251.651047 L 58.478527 251.651047 L 58.478527 157.88092 L 122.870079 157.88092 C 138.967972 157.88092 153.053619 163.112671 163.517151 171.563965 C 173.981171 180.015503 180.420227 191.68634 180.420227 204.564697 C 180.420227 217.845398 173.981171 229.516464 163.517151 237.967743 Z"/>
            </g>
            <g id="g1">
                <path id="path1" fill="#223843" stroke="none" d="M 737.809631 285.85907 L 737.809631 205.771988 C 737.809631 183.63736 728.553101 163.515015 713.662781 149.429367 C 711.248169 147.014801 708.83313 145.002563 706.418579 142.990326 C 708.83313 140.978058 711.248169 138.96582 713.662781 136.551254 C 728.553101 122.063004 737.809631 101.940613 737.809631 80.208679 C 737.809631 58.074051 728.553101 37.951706 713.662781 23.463409 C 698.771912 8.975433 678.247192 0.121582 656.112671 0.121582 C 633.575684 0.121582 613.051025 8.975433 598.160095 23.463409 C 583.672119 37.951706 574.416138 57.671448 574.416138 79.806061 L 574.416138 285.85907 L 609.02655 285.85907 L 609.02655 145.404907 C 622.307007 154.661362 638.404907 159.893158 656.112671 159.893158 L 656.514954 159.893158 C 669.393616 160.295502 680.661865 165.124908 689.113647 173.576202 C 697.967285 182.02774 703.199219 193.296204 703.199219 205.771988 L 702.796387 285.85907 L 737.809631 285.85907 Z M 622.709839 112.404434 C 613.855713 103.952881 609.02655 92.684387 609.02655 80.208679 C 609.02655 67.330276 613.855713 56.061783 622.709839 47.610306 C 631.161072 39.158997 642.832214 34.329544 656.112671 34.329544 C 668.991211 34.329544 680.661865 39.158997 689.51593 47.610306 C 697.967285 56.061783 703.199219 67.330276 703.199219 80.208679 C 703.199219 92.684387 697.967285 103.952881 689.51593 112.404434 C 680.661865 120.453369 669.393616 125.685135 656.514954 125.685135 L 656.112671 125.685135 C 642.832214 125.685135 631.161072 120.855713 622.709839 112.404434 Z"/>
            </g>
            <g id="g2">
                <path id="path2" fill="#223843" stroke="none" d="M 911.264282 145.002563 L 911.264282 179.6129 L 1015.900574 179.6129 C 1010.266235 196.113388 1001.010254 211.003967 988.936829 223.077423 C 969.216797 242.797165 941.447754 255.273178 910.861938 255.273178 C 880.678345 255.273178 852.909424 242.797165 833.189392 223.077423 C 813.067078 202.955048 800.591248 175.588425 800.591248 145.002563 C 800.591248 114.416672 813.067078 87.050018 833.189392 66.927673 C 852.909424 47.207932 880.678345 34.731918 910.861938 34.731918 C 941.447754 34.731918 969.216797 47.207932 988.936829 66.927673 L 1013.485962 42.378479 C 987.326904 16.219452 951.106628 0.121582 910.861938 0.121582 C 871.019531 0.121582 834.799316 16.219452 808.640198 42.378479 C 782.481201 68.537567 765.980957 105.160172 765.980957 145.002563 C 765.980957 184.844925 782.481201 221.467529 808.640198 247.626587 C 834.799316 273.785675 871.019531 289.883545 910.861938 289.883545 L 911.264282 289.883545 C 951.106628 289.883545 987.326904 273.785675 1013.485962 247.626587 C 1039.64502 221.467529 1056.145264 184.844925 1056.145264 145.002563 L 911.264282 145.002563 Z"/>
            </g>
            <g id="galaxy">
                <g id="g3">
                    <g id="g4">
                        <path id="path3" fill="#223843" fill-rule="evenodd" stroke="none" d="M 395.925903 0 C 475.95459 0 540.925903 64.971527 540.925903 145.000015 C 540.925903 225.028549 475.95459 290 395.925903 290 C 315.897217 290 250.925888 225.028549 250.925888 145.000015 C 250.925888 64.971527 315.897217 0 395.925903 0 Z M 395.925903 16.045044 C 324.755646 16.045044 266.970764 73.829803 266.970764 145.000015 C 266.970764 216.170273 324.755646 273.954956 395.925903 273.954956 C 467.09613 273.954956 524.880981 216.170273 524.880981 145.000015 C 524.880981 73.829803 467.09613 16.045044 395.925903 16.045044 Z"/>
                    </g>
                    <g id="g5">
                        <path id="path4" fill="#223843" fill-rule="evenodd" stroke="none" d="M 263.477051 105.800735 L 281.816162 104.797455 C 296.837921 104.797455 309.033752 92.601608 309.033752 77.579834 L 311.367676 34.779922 L 313.701569 77.579834 C 313.701569 92.601608 325.896942 104.797455 340.919159 104.797455 L 383.581787 107.131378 L 340.919159 109.465286 C 325.896942 109.465286 313.701569 121.661087 313.701569 136.682831 L 311.367676 179.345459 L 309.033752 136.682831 C 309.033752 121.661087 296.837921 109.465286 281.816162 109.465286 L 263.477051 108.46196 L 263.477051 105.800735 Z"/>
                    </g>
                    <g id="g6">
                        <path id="path5" fill="#223843" fill-rule="evenodd" stroke="none" d="M 412.151794 281.458038 L 410.248138 246.660828 C 410.248138 229.086823 395.980225 214.818909 378.406219 214.818909 L 328.495148 212.08844 L 378.406219 209.358002 C 395.980225 209.358002 410.248138 195.090088 410.248138 177.516052 L 412.978607 127.444366 L 415.709076 177.516052 C 415.709076 195.090088 429.976501 209.358002 447.550995 209.358002 L 497.462097 212.08844 L 447.550995 214.818909 C 429.976501 214.818909 415.709076 229.086823 415.709076 246.660828 L 413.805481 281.458038 L 412.151794 281.458038 Z"/>
                    </g>
                    <g id="g7">
                        <path id="path6" fill="#223843" fill-rule="evenodd" stroke="none" d="M 432.789215 35.419327 L 434.668732 69.886505 C 434.668732 81.983688 444.489838 91.805084 456.587341 91.805084 L 490.94397 93.684647 L 456.587341 95.564194 C 444.489838 95.564194 434.668732 105.38559 434.668732 117.482773 L 432.789215 151.839386 L 430.909668 117.482773 C 430.909668 105.38559 421.088257 95.564194 408.991089 95.564194 L 374.63443 93.684647 L 408.991089 91.805084 C 421.088257 91.805084 430.909668 81.983688 430.909668 69.886505 L 432.789215 35.419327 Z"/>
                    </g>
                </g>
            </g>
        </g>
    </g>
</svg>
